<mxfile host="app.diagrams.net" modified="2023-10-02T13:20:22.118Z" agent="Mozilla/5.0 (Windows NT 10.0; Win64; x64) AppleWebKit/537.36 (KHTML, like Gecko) Chrome/117.0.0.0 Safari/537.36 Edg/117.0.2045.31" etag="NdgCilxBEpAs9O6tfV5s" version="22.0.0" type="onedrive">
  <diagram name="Page-1" id="D1RL10ss5ud9BW_s002l">
    <mxGraphModel grid="1" page="1" gridSize="10" guides="1" tooltips="1" connect="1" arrows="1" fold="1" pageScale="1" pageWidth="827" pageHeight="1169" math="0" shadow="0">
      <root>
        <mxCell id="0" />
        <mxCell id="1" parent="0" />
        <mxCell id="mjTAZgUqp-qMq7TUQf7L-1" value="START" style="ellipse;whiteSpace=wrap;html=1;" vertex="1" parent="1">
          <mxGeometry x="354" width="120" height="80" as="geometry" />
        </mxCell>
        <mxCell id="mjTAZgUqp-qMq7TUQf7L-2" value="" style="endArrow=classic;html=1;rounded=0;" edge="1" parent="1">
          <mxGeometry width="50" height="50" relative="1" as="geometry">
            <mxPoint x="420" y="80" as="sourcePoint" />
            <mxPoint x="420" y="100" as="targetPoint" />
          </mxGeometry>
        </mxCell>
        <mxCell id="mjTAZgUqp-qMq7TUQf7L-3" value="Password_True = 0" style="shape=parallelogram;perimeter=parallelogramPerimeter;whiteSpace=wrap;html=1;fixedSize=1;" vertex="1" parent="1">
          <mxGeometry x="360" y="100" width="120" height="60" as="geometry" />
        </mxCell>
        <mxCell id="mjTAZgUqp-qMq7TUQf7L-4" value="" style="endArrow=classic;html=1;rounded=0;" edge="1" parent="1">
          <mxGeometry width="50" height="50" relative="1" as="geometry">
            <mxPoint x="414" y="260" as="sourcePoint" />
            <mxPoint x="414" y="280" as="targetPoint" />
          </mxGeometry>
        </mxCell>
        <mxCell id="mjTAZgUqp-qMq7TUQf7L-5" value="Password = input(&quot;Enter password&quot;)" style="shape=parallelogram;perimeter=parallelogramPerimeter;whiteSpace=wrap;html=1;fixedSize=1;" vertex="1" parent="1">
          <mxGeometry x="350" y="280" width="120" height="60" as="geometry" />
        </mxCell>
        <mxCell id="mjTAZgUqp-qMq7TUQf7L-6" value="" style="endArrow=classic;html=1;rounded=0;" edge="1" parent="1" source="mjTAZgUqp-qMq7TUQf7L-5" target="mjTAZgUqp-qMq7TUQf7L-28">
          <mxGeometry width="50" height="50" relative="1" as="geometry">
            <mxPoint x="320" y="290" as="sourcePoint" />
            <mxPoint x="280" y="310" as="targetPoint" />
          </mxGeometry>
        </mxCell>
        <mxCell id="mjTAZgUqp-qMq7TUQf7L-7" value="is 12&amp;lt;=Password.length" style="rhombus;whiteSpace=wrap;html=1;" vertex="1" parent="1">
          <mxGeometry x="260" y="400" width="280" height="190" as="geometry" />
        </mxCell>
        <mxCell id="mjTAZgUqp-qMq7TUQf7L-8" value="" style="endArrow=classic;html=1;rounded=0;" edge="1" parent="1">
          <mxGeometry width="50" height="50" relative="1" as="geometry">
            <mxPoint x="399.5" y="590" as="sourcePoint" />
            <mxPoint x="399.5" y="670" as="targetPoint" />
          </mxGeometry>
        </mxCell>
        <mxCell id="mjTAZgUqp-qMq7TUQf7L-9" value="YES" style="text;html=1;align=center;verticalAlign=middle;resizable=0;points=[];autosize=1;strokeColor=none;fillColor=none;" vertex="1" parent="1">
          <mxGeometry x="395" y="588" width="50" height="30" as="geometry" />
        </mxCell>
        <mxCell id="mjTAZgUqp-qMq7TUQf7L-11" value="" style="endArrow=classic;html=1;rounded=0;" edge="1" parent="1">
          <mxGeometry width="50" height="50" relative="1" as="geometry">
            <mxPoint x="540" y="500" as="sourcePoint" />
            <mxPoint x="590" y="500" as="targetPoint" />
          </mxGeometry>
        </mxCell>
        <mxCell id="mjTAZgUqp-qMq7TUQf7L-12" value="NO" style="text;html=1;align=center;verticalAlign=middle;resizable=0;points=[];autosize=1;strokeColor=none;fillColor=none;" vertex="1" parent="1">
          <mxGeometry x="530" y="448" width="40" height="30" as="geometry" />
        </mxCell>
        <mxCell id="mjTAZgUqp-qMq7TUQf7L-13" value="print(&quot;Password must be less than or equal to 12 characters&quot;)" style="shape=parallelogram;perimeter=parallelogramPerimeter;whiteSpace=wrap;html=1;fixedSize=1;" vertex="1" parent="1">
          <mxGeometry x="580" y="470" width="120" height="60" as="geometry" />
        </mxCell>
        <mxCell id="mjTAZgUqp-qMq7TUQf7L-14" value="" style="endArrow=classic;html=1;rounded=0;" edge="1" parent="1">
          <mxGeometry width="50" height="50" relative="1" as="geometry">
            <mxPoint x="690" y="510" as="sourcePoint" />
            <mxPoint x="740" y="510" as="targetPoint" />
          </mxGeometry>
        </mxCell>
        <mxCell id="mjTAZgUqp-qMq7TUQf7L-15" value="" style="endArrow=classic;html=1;rounded=0;" edge="1" parent="1">
          <mxGeometry width="50" height="50" relative="1" as="geometry">
            <mxPoint x="740" y="510" as="sourcePoint" />
            <mxPoint x="740" y="340" as="targetPoint" />
          </mxGeometry>
        </mxCell>
        <mxCell id="mjTAZgUqp-qMq7TUQf7L-16" value="" style="endArrow=classic;html=1;rounded=0;entryX=0.867;entryY=1.017;entryDx=0;entryDy=0;entryPerimeter=0;" edge="1" parent="1" target="mjTAZgUqp-qMq7TUQf7L-5">
          <mxGeometry width="50" height="50" relative="1" as="geometry">
            <mxPoint x="740" y="340" as="sourcePoint" />
            <mxPoint x="790" y="290" as="targetPoint" />
          </mxGeometry>
        </mxCell>
        <mxCell id="mjTAZgUqp-qMq7TUQf7L-17" value="is 6&amp;gt;= Password.Length" style="rhombus;whiteSpace=wrap;html=1;" vertex="1" parent="1">
          <mxGeometry x="350" y="670" width="100" height="190" as="geometry" />
        </mxCell>
        <mxCell id="mjTAZgUqp-qMq7TUQf7L-18" value="" style="endArrow=classic;html=1;rounded=0;" edge="1" parent="1">
          <mxGeometry width="50" height="50" relative="1" as="geometry">
            <mxPoint x="450" y="760" as="sourcePoint" />
            <mxPoint x="580" y="760" as="targetPoint" />
          </mxGeometry>
        </mxCell>
        <mxCell id="mjTAZgUqp-qMq7TUQf7L-19" value="NO" style="text;html=1;align=center;verticalAlign=middle;resizable=0;points=[];autosize=1;strokeColor=none;fillColor=none;" vertex="1" parent="1">
          <mxGeometry x="440" y="708" width="40" height="30" as="geometry" />
        </mxCell>
        <mxCell id="mjTAZgUqp-qMq7TUQf7L-20" value="" style="endArrow=classic;html=1;rounded=0;" edge="1" parent="1">
          <mxGeometry width="50" height="50" relative="1" as="geometry">
            <mxPoint x="400" y="860" as="sourcePoint" />
            <mxPoint x="400" y="930" as="targetPoint" />
          </mxGeometry>
        </mxCell>
        <mxCell id="mjTAZgUqp-qMq7TUQf7L-22" value="print(Password must be greater than or equal to 6 characters&quot;)" style="shape=parallelogram;perimeter=parallelogramPerimeter;whiteSpace=wrap;html=1;fixedSize=1;" vertex="1" parent="1">
          <mxGeometry x="570" y="735" width="120" height="60" as="geometry" />
        </mxCell>
        <mxCell id="mjTAZgUqp-qMq7TUQf7L-23" value="" style="endArrow=classic;html=1;rounded=0;" edge="1" parent="1">
          <mxGeometry width="50" height="50" relative="1" as="geometry">
            <mxPoint x="680" y="770" as="sourcePoint" />
            <mxPoint x="770" y="770" as="targetPoint" />
          </mxGeometry>
        </mxCell>
        <mxCell id="mjTAZgUqp-qMq7TUQf7L-24" value="" style="endArrow=classic;html=1;rounded=0;" edge="1" parent="1">
          <mxGeometry width="50" height="50" relative="1" as="geometry">
            <mxPoint x="770" y="770" as="sourcePoint" />
            <mxPoint x="770" y="340" as="targetPoint" />
          </mxGeometry>
        </mxCell>
        <mxCell id="mjTAZgUqp-qMq7TUQf7L-25" value="" style="endArrow=classic;html=1;rounded=0;" edge="1" parent="1">
          <mxGeometry width="50" height="50" relative="1" as="geometry">
            <mxPoint x="770" y="340" as="sourcePoint" />
            <mxPoint x="740" y="340" as="targetPoint" />
          </mxGeometry>
        </mxCell>
        <mxCell id="mjTAZgUqp-qMq7TUQf7L-26" value="YES" style="text;html=1;align=center;verticalAlign=middle;resizable=0;points=[];autosize=1;strokeColor=none;fillColor=none;" vertex="1" parent="1">
          <mxGeometry x="415" y="858" width="50" height="30" as="geometry" />
        </mxCell>
        <mxCell id="mjTAZgUqp-qMq7TUQf7L-27" value="print(&quot;Password is acceptable&quot;)" style="shape=parallelogram;perimeter=parallelogramPerimeter;whiteSpace=wrap;html=1;fixedSize=1;" vertex="1" parent="1">
          <mxGeometry x="340" y="930" width="120" height="60" as="geometry" />
        </mxCell>
        <mxCell id="mjTAZgUqp-qMq7TUQf7L-28" value="Password.Length = len(Password)" style="rounded=0;whiteSpace=wrap;html=1;" vertex="1" parent="1">
          <mxGeometry x="160" y="280" width="120" height="60" as="geometry" />
        </mxCell>
        <mxCell id="mjTAZgUqp-qMq7TUQf7L-29" value="" style="endArrow=classic;html=1;rounded=0;" edge="1" parent="1">
          <mxGeometry width="50" height="50" relative="1" as="geometry">
            <mxPoint x="219.5" y="340" as="sourcePoint" />
            <mxPoint x="220" y="370" as="targetPoint" />
          </mxGeometry>
        </mxCell>
        <mxCell id="mjTAZgUqp-qMq7TUQf7L-31" value="" style="endArrow=classic;html=1;rounded=0;" edge="1" parent="1">
          <mxGeometry width="50" height="50" relative="1" as="geometry">
            <mxPoint x="220" y="370" as="sourcePoint" />
            <mxPoint x="400" y="370" as="targetPoint" />
          </mxGeometry>
        </mxCell>
        <mxCell id="mjTAZgUqp-qMq7TUQf7L-32" value="" style="endArrow=classic;html=1;rounded=0;" edge="1" parent="1">
          <mxGeometry width="50" height="50" relative="1" as="geometry">
            <mxPoint x="400" y="370" as="sourcePoint" />
            <mxPoint x="399.5" y="410" as="targetPoint" />
          </mxGeometry>
        </mxCell>
        <mxCell id="mjTAZgUqp-qMq7TUQf7L-33" value="" style="endArrow=classic;html=1;rounded=0;entryX=0.5;entryY=0;entryDx=0;entryDy=0;" edge="1" parent="1" target="mjTAZgUqp-qMq7TUQf7L-34">
          <mxGeometry width="50" height="50" relative="1" as="geometry">
            <mxPoint x="399.5" y="990" as="sourcePoint" />
            <mxPoint x="400" y="1010" as="targetPoint" />
          </mxGeometry>
        </mxCell>
        <mxCell id="mjTAZgUqp-qMq7TUQf7L-34" value="find if caps are used in Password" style="rounded=0;whiteSpace=wrap;html=1;" vertex="1" parent="1">
          <mxGeometry x="340" y="1070" width="120" height="60" as="geometry" />
        </mxCell>
        <mxCell id="mjTAZgUqp-qMq7TUQf7L-37" value="" style="endArrow=classic;html=1;rounded=0;" edge="1" parent="1" source="mjTAZgUqp-qMq7TUQf7L-36">
          <mxGeometry width="50" height="50" relative="1" as="geometry">
            <mxPoint x="399.5" y="1270" as="sourcePoint" />
            <mxPoint x="400" y="1550" as="targetPoint" />
          </mxGeometry>
        </mxCell>
        <mxCell id="mjTAZgUqp-qMq7TUQf7L-36" value="find if lower case is used in Password" style="rounded=0;whiteSpace=wrap;html=1;" vertex="1" parent="1">
          <mxGeometry x="340" y="1330" width="120" height="60" as="geometry" />
        </mxCell>
        <mxCell id="mjTAZgUqp-qMq7TUQf7L-40" value="is Password got caps" style="rhombus;whiteSpace=wrap;html=1;" vertex="1" parent="1">
          <mxGeometry x="360" y="1180" width="80" height="80" as="geometry" />
        </mxCell>
        <mxCell id="mjTAZgUqp-qMq7TUQf7L-41" value="" style="endArrow=classic;html=1;rounded=0;" edge="1" parent="1" target="mjTAZgUqp-qMq7TUQf7L-42">
          <mxGeometry width="50" height="50" relative="1" as="geometry">
            <mxPoint x="440" y="1220" as="sourcePoint" />
            <mxPoint x="580" y="1220" as="targetPoint" />
          </mxGeometry>
        </mxCell>
        <mxCell id="mjTAZgUqp-qMq7TUQf7L-42" value="Password_Strength = Password_Strength + 1" style="rounded=0;whiteSpace=wrap;html=1;" vertex="1" parent="1">
          <mxGeometry x="520" y="1190" width="120" height="60" as="geometry" />
        </mxCell>
        <mxCell id="mjTAZgUqp-qMq7TUQf7L-43" value="Password_Strength = 0" style="shape=parallelogram;perimeter=parallelogramPerimeter;whiteSpace=wrap;html=1;fixedSize=1;" vertex="1" parent="1">
          <mxGeometry x="354" y="200" width="120" height="60" as="geometry" />
        </mxCell>
        <mxCell id="mjTAZgUqp-qMq7TUQf7L-44" value="Yes" style="text;html=1;align=center;verticalAlign=middle;resizable=0;points=[];autosize=1;strokeColor=none;fillColor=none;" vertex="1" parent="1">
          <mxGeometry x="440" y="1178" width="40" height="30" as="geometry" />
        </mxCell>
        <mxCell id="mjTAZgUqp-qMq7TUQf7L-45" value="" style="endArrow=classic;html=1;rounded=0;entryX=0.5;entryY=0;entryDx=0;entryDy=0;" edge="1" parent="1" target="mjTAZgUqp-qMq7TUQf7L-36">
          <mxGeometry width="50" height="50" relative="1" as="geometry">
            <mxPoint x="400" y="1290" as="sourcePoint" />
            <mxPoint x="400" y="1320" as="targetPoint" />
            <Array as="points">
              <mxPoint x="400" y="1260" />
            </Array>
          </mxGeometry>
        </mxCell>
        <mxCell id="mjTAZgUqp-qMq7TUQf7L-46" value="NO" style="text;html=1;align=center;verticalAlign=middle;resizable=0;points=[];autosize=1;strokeColor=none;fillColor=none;" vertex="1" parent="1">
          <mxGeometry x="400" y="1248" width="40" height="30" as="geometry" />
        </mxCell>
        <mxCell id="mjTAZgUqp-qMq7TUQf7L-47" value="" style="endArrow=classic;html=1;rounded=0;" edge="1" parent="1">
          <mxGeometry width="50" height="50" relative="1" as="geometry">
            <mxPoint x="580" y="1248" as="sourcePoint" />
            <mxPoint x="580" y="1340" as="targetPoint" />
          </mxGeometry>
        </mxCell>
        <mxCell id="mjTAZgUqp-qMq7TUQf7L-48" value="" style="endArrow=classic;html=1;rounded=0;entryX=1.025;entryY=0.15;entryDx=0;entryDy=0;entryPerimeter=0;" edge="1" parent="1" target="mjTAZgUqp-qMq7TUQf7L-36">
          <mxGeometry width="50" height="50" relative="1" as="geometry">
            <mxPoint x="580" y="1340" as="sourcePoint" />
            <mxPoint x="630" y="1290" as="targetPoint" />
          </mxGeometry>
        </mxCell>
        <mxCell id="mjTAZgUqp-qMq7TUQf7L-50" value="is lower case used in Password" style="rhombus;whiteSpace=wrap;html=1;" vertex="1" parent="1">
          <mxGeometry x="360" y="1550" width="80" height="80" as="geometry" />
        </mxCell>
        <mxCell id="mjTAZgUqp-qMq7TUQf7L-51" value="" style="endArrow=classic;html=1;rounded=0;" edge="1" parent="1">
          <mxGeometry width="50" height="50" relative="1" as="geometry">
            <mxPoint x="440" y="1590" as="sourcePoint" />
            <mxPoint x="540" y="1590" as="targetPoint" />
          </mxGeometry>
        </mxCell>
        <mxCell id="mjTAZgUqp-qMq7TUQf7L-52" value="YES" style="text;html=1;align=center;verticalAlign=middle;resizable=0;points=[];autosize=1;strokeColor=none;fillColor=none;" vertex="1" parent="1">
          <mxGeometry x="435" y="1538" width="50" height="30" as="geometry" />
        </mxCell>
        <mxCell id="mjTAZgUqp-qMq7TUQf7L-54" value="" style="endArrow=classic;html=1;rounded=0;" edge="1" parent="1">
          <mxGeometry width="50" height="50" relative="1" as="geometry">
            <mxPoint x="400" y="1630" as="sourcePoint" />
            <mxPoint x="400" y="1700" as="targetPoint" />
          </mxGeometry>
        </mxCell>
        <mxCell id="mjTAZgUqp-qMq7TUQf7L-55" value="NO" style="text;html=1;align=center;verticalAlign=middle;resizable=0;points=[];autosize=1;strokeColor=none;fillColor=none;" vertex="1" parent="1">
          <mxGeometry x="400" y="1628" width="40" height="30" as="geometry" />
        </mxCell>
        <mxCell id="mjTAZgUqp-qMq7TUQf7L-56" value="Password_Strength = Password_strength + 1" style="rounded=0;whiteSpace=wrap;html=1;" vertex="1" parent="1">
          <mxGeometry x="540" y="1560" width="120" height="60" as="geometry" />
        </mxCell>
        <mxCell id="mjTAZgUqp-qMq7TUQf7L-57" value="find if password has numbers" style="rounded=0;whiteSpace=wrap;html=1;" vertex="1" parent="1">
          <mxGeometry x="350" y="1700" width="120" height="60" as="geometry" />
        </mxCell>
        <mxCell id="mjTAZgUqp-qMq7TUQf7L-58" value="" style="endArrow=classic;html=1;rounded=0;" edge="1" parent="1" target="mjTAZgUqp-qMq7TUQf7L-59">
          <mxGeometry width="50" height="50" relative="1" as="geometry">
            <mxPoint x="409.5" y="1760" as="sourcePoint" />
            <mxPoint x="409.5" y="1850" as="targetPoint" />
          </mxGeometry>
        </mxCell>
        <mxCell id="mjTAZgUqp-qMq7TUQf7L-59" value="is numbers used in Password" style="rhombus;whiteSpace=wrap;html=1;" vertex="1" parent="1">
          <mxGeometry x="369.5" y="1810" width="80" height="80" as="geometry" />
        </mxCell>
        <mxCell id="mjTAZgUqp-qMq7TUQf7L-60" value="" style="endArrow=classic;html=1;rounded=0;" edge="1" parent="1">
          <mxGeometry width="50" height="50" relative="1" as="geometry">
            <mxPoint x="450" y="1850" as="sourcePoint" />
            <mxPoint x="540" y="1850" as="targetPoint" />
          </mxGeometry>
        </mxCell>
        <mxCell id="mjTAZgUqp-qMq7TUQf7L-61" value="" style="endArrow=classic;html=1;rounded=0;" edge="1" parent="1">
          <mxGeometry width="50" height="50" relative="1" as="geometry">
            <mxPoint x="409.5" y="1890" as="sourcePoint" />
            <mxPoint x="410" y="2100" as="targetPoint" />
          </mxGeometry>
        </mxCell>
        <mxCell id="mjTAZgUqp-qMq7TUQf7L-62" value="Password_Strength = Password_Strength + 1" style="rounded=0;whiteSpace=wrap;html=1;" vertex="1" parent="1">
          <mxGeometry x="540" y="1820" width="120" height="60" as="geometry" />
        </mxCell>
        <mxCell id="mjTAZgUqp-qMq7TUQf7L-63" value="" style="endArrow=classic;html=1;rounded=0;" edge="1" parent="1">
          <mxGeometry width="50" height="50" relative="1" as="geometry">
            <mxPoint x="599.5" y="1620" as="sourcePoint" />
            <mxPoint x="600" y="1660" as="targetPoint" />
          </mxGeometry>
        </mxCell>
        <mxCell id="mjTAZgUqp-qMq7TUQf7L-64" value="" style="endArrow=classic;html=1;rounded=0;entryX=-0.075;entryY=1.115;entryDx=0;entryDy=0;entryPerimeter=0;" edge="1" parent="1" target="mjTAZgUqp-qMq7TUQf7L-55">
          <mxGeometry width="50" height="50" relative="1" as="geometry">
            <mxPoint x="600" y="1660" as="sourcePoint" />
            <mxPoint x="480" y="1660" as="targetPoint" />
          </mxGeometry>
        </mxCell>
        <mxCell id="mjTAZgUqp-qMq7TUQf7L-65" value="YES" style="text;html=1;align=center;verticalAlign=middle;resizable=0;points=[];autosize=1;strokeColor=none;fillColor=none;" vertex="1" parent="1">
          <mxGeometry x="435" y="1808" width="50" height="30" as="geometry" />
        </mxCell>
        <mxCell id="mjTAZgUqp-qMq7TUQf7L-66" value="NO" style="text;html=1;align=center;verticalAlign=middle;resizable=0;points=[];autosize=1;strokeColor=none;fillColor=none;" vertex="1" parent="1">
          <mxGeometry x="410" y="1888" width="40" height="30" as="geometry" />
        </mxCell>
        <mxCell id="mjTAZgUqp-qMq7TUQf7L-67" value="" style="endArrow=classic;html=1;rounded=0;" edge="1" parent="1">
          <mxGeometry width="50" height="50" relative="1" as="geometry">
            <mxPoint x="599.5" y="1880" as="sourcePoint" />
            <mxPoint x="600" y="2040" as="targetPoint" />
          </mxGeometry>
        </mxCell>
        <mxCell id="mjTAZgUqp-qMq7TUQf7L-68" value="" style="endArrow=classic;html=1;rounded=0;" edge="1" parent="1">
          <mxGeometry width="50" height="50" relative="1" as="geometry">
            <mxPoint x="600" y="2040" as="sourcePoint" />
            <mxPoint x="410" y="2040" as="targetPoint" />
          </mxGeometry>
        </mxCell>
        <mxCell id="mjTAZgUqp-qMq7TUQf7L-69" value="is Password_Strength == 1" style="rhombus;whiteSpace=wrap;html=1;" vertex="1" parent="1">
          <mxGeometry x="370" y="2100" width="80" height="80" as="geometry" />
        </mxCell>
        <mxCell id="mjTAZgUqp-qMq7TUQf7L-70" value="" style="endArrow=classic;html=1;rounded=0;" edge="1" parent="1">
          <mxGeometry width="50" height="50" relative="1" as="geometry">
            <mxPoint x="450" y="2139.5" as="sourcePoint" />
            <mxPoint x="640" y="2139.5" as="targetPoint" />
          </mxGeometry>
        </mxCell>
        <mxCell id="mjTAZgUqp-qMq7TUQf7L-71" value="YES" style="text;html=1;align=center;verticalAlign=middle;resizable=0;points=[];autosize=1;strokeColor=none;fillColor=none;" vertex="1" parent="1">
          <mxGeometry x="445" y="2088" width="50" height="30" as="geometry" />
        </mxCell>
        <mxCell id="mjTAZgUqp-qMq7TUQf7L-72" value="print(&quot;Password is weak&quot;)" style="shape=parallelogram;perimeter=parallelogramPerimeter;whiteSpace=wrap;html=1;fixedSize=1;" vertex="1" parent="1">
          <mxGeometry x="630" y="2118" width="120" height="60" as="geometry" />
        </mxCell>
        <mxCell id="mjTAZgUqp-qMq7TUQf7L-73" value="" style="endArrow=classic;html=1;rounded=0;" edge="1" parent="1">
          <mxGeometry width="50" height="50" relative="1" as="geometry">
            <mxPoint x="410" y="2180" as="sourcePoint" />
            <mxPoint x="410" y="2360" as="targetPoint" />
          </mxGeometry>
        </mxCell>
        <mxCell id="mjTAZgUqp-qMq7TUQf7L-74" value="NO" style="text;html=1;align=center;verticalAlign=middle;resizable=0;points=[];autosize=1;strokeColor=none;fillColor=none;" vertex="1" parent="1">
          <mxGeometry x="410" y="2178" width="40" height="30" as="geometry" />
        </mxCell>
        <mxCell id="mjTAZgUqp-qMq7TUQf7L-75" value="is Password_Strength == 2" style="rhombus;whiteSpace=wrap;html=1;" vertex="1" parent="1">
          <mxGeometry x="370" y="2360" width="80" height="80" as="geometry" />
        </mxCell>
        <mxCell id="mjTAZgUqp-qMq7TUQf7L-76" value="" style="endArrow=classic;html=1;rounded=0;" edge="1" parent="1">
          <mxGeometry width="50" height="50" relative="1" as="geometry">
            <mxPoint x="450" y="2400" as="sourcePoint" />
            <mxPoint x="580" y="2400" as="targetPoint" />
          </mxGeometry>
        </mxCell>
        <mxCell id="mjTAZgUqp-qMq7TUQf7L-77" value="YES" style="text;html=1;align=center;verticalAlign=middle;resizable=0;points=[];autosize=1;strokeColor=none;fillColor=none;" vertex="1" parent="1">
          <mxGeometry x="435" y="2348" width="50" height="30" as="geometry" />
        </mxCell>
        <mxCell id="mjTAZgUqp-qMq7TUQf7L-78" value="print (&quot; Password is medium&quot;)" style="shape=parallelogram;perimeter=parallelogramPerimeter;whiteSpace=wrap;html=1;fixedSize=1;" vertex="1" parent="1">
          <mxGeometry x="570" y="2370" width="120" height="60" as="geometry" />
        </mxCell>
        <mxCell id="mjTAZgUqp-qMq7TUQf7L-79" value="" style="endArrow=classic;html=1;rounded=0;" edge="1" parent="1" target="mjTAZgUqp-qMq7TUQf7L-80">
          <mxGeometry width="50" height="50" relative="1" as="geometry">
            <mxPoint x="410" y="2440" as="sourcePoint" />
            <mxPoint x="410" y="2520" as="targetPoint" />
          </mxGeometry>
        </mxCell>
        <mxCell id="mjTAZgUqp-qMq7TUQf7L-80" value="is Password_Strength == 3" style="rhombus;whiteSpace=wrap;html=1;" vertex="1" parent="1">
          <mxGeometry x="370" y="2480" width="80" height="80" as="geometry" />
        </mxCell>
        <mxCell id="mjTAZgUqp-qMq7TUQf7L-81" value="" style="endArrow=classic;html=1;rounded=0;" edge="1" parent="1" target="mjTAZgUqp-qMq7TUQf7L-82">
          <mxGeometry width="50" height="50" relative="1" as="geometry">
            <mxPoint x="449.5" y="2520" as="sourcePoint" />
            <mxPoint x="570" y="2520" as="targetPoint" />
          </mxGeometry>
        </mxCell>
        <mxCell id="mjTAZgUqp-qMq7TUQf7L-82" value="print(&quot;Password is strong&quot;)" style="shape=parallelogram;perimeter=parallelogramPerimeter;whiteSpace=wrap;html=1;fixedSize=1;" vertex="1" parent="1">
          <mxGeometry x="510" y="2490" width="120" height="60" as="geometry" />
        </mxCell>
        <mxCell id="mjTAZgUqp-qMq7TUQf7L-83" value="" style="endArrow=classic;html=1;rounded=0;" edge="1" parent="1" target="mjTAZgUqp-qMq7TUQf7L-84">
          <mxGeometry width="50" height="50" relative="1" as="geometry">
            <mxPoint x="410" y="2560" as="sourcePoint" />
            <mxPoint x="410" y="2630" as="targetPoint" />
          </mxGeometry>
        </mxCell>
        <mxCell id="mjTAZgUqp-qMq7TUQf7L-84" value="" style="shape=parallelogram;perimeter=parallelogramPerimeter;whiteSpace=wrap;html=1;fixedSize=1;" vertex="1" parent="1">
          <mxGeometry x="350" y="2600" width="120" height="60" as="geometry" />
        </mxCell>
        <mxCell id="ApBxQZ1V0PLsEds2JLsB-1" value="" style="endArrow=classic;html=1;rounded=0;" edge="1" parent="1">
          <mxGeometry width="50" height="50" relative="1" as="geometry">
            <mxPoint x="400" y="1130" as="sourcePoint" />
            <mxPoint x="400" y="1180" as="targetPoint" />
          </mxGeometry>
        </mxCell>
      </root>
    </mxGraphModel>
  </diagram>
</mxfile>
